<?xml version="1.0" encoding="iso-8859-1"?>
<!-- Generator: Adobe Illustrator 19.0.0, SVG Export Plug-In . SVG Version: 6.00 Build 0)  -->
<svg version="1.1" id="Layer_1" xmlns="http://www.w3.org/2000/svg" xmlns:xlink="http://www.w3.org/1999/xlink" x="0px" y="0px"
	 viewBox="0 0 504.123 504.123" style="enable-background:new 0 0 504.123 504.123;" xml:space="preserve">
<circle style="fill:#324A5E;" cx="252.062" cy="252.062" r="252.062"/>
<rect x="115.397" y="189.046" style="fill:#EFEFEF;" width="273.329" height="205.982"/>
<rect x="115.397" y="128" style="fill:#84DBFF;" width="273.329" height="61.046"/>
<g>
	<path style="fill:#FFFFFF;" d="M144.542,109.095c-3.151,0-5.908,2.757-5.908,5.908v26.388c0,3.151,2.757,5.908,5.908,5.908
		c3.151,0,5.908-2.757,5.908-5.908v-26.388C150.055,111.458,147.692,109.095,144.542,109.095z"/>
	<path style="fill:#FFFFFF;" d="M187.471,109.095c-3.151,0-5.908,2.757-5.908,5.908v26.388c0,3.151,2.757,5.908,5.908,5.908
		s5.908-2.757,5.908-5.908v-26.388C193.378,111.458,190.622,109.095,187.471,109.095z"/>
	<path style="fill:#FFFFFF;" d="M230.4,109.095L230.4,109.095c-3.151,0-5.908,2.757-5.908,5.908v26.388
		c0,3.151,2.757,5.908,5.908,5.908l0,0c3.151,0,5.908-2.757,5.908-5.908v-26.388C236.308,111.458,233.551,109.095,230.4,109.095z"/>
	<path style="fill:#FFFFFF;" d="M273.723,109.095L273.723,109.095c-3.151,0-5.908,2.757-5.908,5.908v26.388
		c0,3.151,2.757,5.908,5.908,5.908l0,0c3.151,0,5.908-2.757,5.908-5.908v-26.388C279.237,111.458,276.874,109.095,273.723,109.095z"
		/>
	<path style="fill:#FFFFFF;" d="M316.652,109.095L316.652,109.095c-3.151,0-5.908,2.757-5.908,5.908v26.388
		c0,3.151,2.757,5.908,5.908,5.908l0,0c3.151,0,5.908-2.757,5.908-5.908v-26.388C322.56,111.458,319.803,109.095,316.652,109.095z"
		/>
	<path style="fill:#FFFFFF;" d="M359.582,109.095c-3.151,0-5.908,2.757-5.908,5.908v26.388c0,3.151,2.757,5.908,5.908,5.908
		s5.908-2.757,5.908-5.908v-26.388C365.489,111.458,363.126,109.095,359.582,109.095z"/>
	<circle style="fill:#FFFFFF;" cx="165.415" cy="231.975" r="15.36"/>
	<circle style="fill:#FFFFFF;" cx="223.311" cy="231.975" r="15.36"/>
</g>
<circle style="fill:#FF7058;" cx="280.812" cy="231.975" r="15.36"/>
<g>
	<circle style="fill:#FFFFFF;" cx="338.708" cy="231.975" r="15.36"/>
	<circle style="fill:#FFFFFF;" cx="165.415" cy="287.114" r="15.36"/>
	<circle style="fill:#FFFFFF;" cx="223.311" cy="287.114" r="15.36"/>
</g>
<circle style="fill:#FF7058;" cx="280.812" cy="287.114" r="15.36"/>
<g>
	<circle style="fill:#FFFFFF;" cx="338.708" cy="287.114" r="15.36"/>
	<circle style="fill:#FFFFFF;" cx="165.415" cy="342.252" r="15.36"/>
	<circle style="fill:#FFFFFF;" cx="223.311" cy="342.252" r="15.36"/>
</g>
<circle style="fill:#FF7058;" cx="280.812" cy="342.252" r="15.36"/>
<circle style="fill:#FFFFFF;" cx="338.708" cy="342.252" r="15.36"/>
<g>
</g>
<g>
</g>
<g>
</g>
<g>
</g>
<g>
</g>
<g>
</g>
<g>
</g>
<g>
</g>
<g>
</g>
<g>
</g>
<g>
</g>
<g>
</g>
<g>
</g>
<g>
</g>
<g>
</g>
</svg>
